PathFileType	4	(X/Y/Z)	C:\Users\WrightLab\Desktop\Jo\P5V120.trc
DataRate	CameraRate	NumFrames	NumMarkers	Units	OrigDataRate	OrigDataStartFrame	OrigNumFrames
100.00	100.00	       7	19	mm	100.00	473	       630
Frame#	Time	Headset_Front			Headset_Back			Headset_Left			Headset_Right			Left_Shoulder			Right_Shoulder			Sternum			C7			Left Elbow			Right Elbow			Left Wrist			Right Wrist			Left ASIS			Right ASIS			S2			Left Knee			Right Knee			Left Ankle			Right Ankle			
		X1	Y1	Z1	X2	Y2	Z2	X3	Y3	Z3	X4	Y4	Z4	X5	Y5	Z5	X6	Y6	Z6	X7	Y7	Z7	X8	Y8	Z8	X9	Y9	Z9	X10	Y10	Z10	X11	Y11	Z11	X12	Y12	Z12	X13	Y13	Z13	X14	Y14	Z14	X15	Y15	Z15	X16	Y16	Z16	X17	Y17	Z17	X18	Y18	Z18	X19	Y19	Z19	

473	4.720	-33.21653	1474.38574	-719.78802	127.44640	1732.63721	-636.28864				69.13192	1561.49792	-789.20465	85.09029	1449.16406	-446.03381	323.22729	1455.71863	-785.37549	150.16714	1300.06580	-692.41150				156.02339	1179.85645	-332.08063	463.59384	1209.89136	-826.23309	22.00803	1012.73999	-409.39822	304.78452	1041.31897	-894.96802	79.19729	912.11737	-601.76941	288.68951	939.89227	-791.54205	341.19434	963.42267	-492.73322	76.34893	487.99142	-624.46246	389.81982	468.94135	-730.63214	207.25786	79.03967	-630.07764	568.15900	258.04956	-444.80692	
474	4.730	-39.35310	1476.18213	-721.28900	122.96225	1734.53040	-640.08643				62.46270	1563.33325	-792.23669	82.72189	1450.02209	-449.28149	316.16406	1456.97839	-792.00671	143.90414	1302.10303	-697.50488				155.18900	1180.89722	-337.32108	454.74185	1209.83923	-834.84094	20.95977	1012.61395	-412.00272	294.81262	1041.93994	-901.60400	72.07886	912.78137	-604.87695	280.88013	940.84912	-799.48035	335.64734	964.26373	-498.91824	70.55582	487.85202	-624.53302	374.60641	469.49786	-747.11279	207.50444	79.59570	-629.72620	558.59302	263.70602	-462.31851	
475	4.740	-45.41233	1478.31140	-723.21216	118.61610	1736.04321	-643.66833				55.62030	1565.32654	-795.84137	80.69041	1451.12512	-452.26053	309.67746	1457.84827	-797.98035	137.75476	1303.43958	-701.73364				154.65834	1180.54065	-341.38434	445.91095	1210.17456	-843.13965	19.76883	1014.42120	-415.91751	285.14334	1042.62866	-907.15472	65.45181	913.94025	-607.04144	271.83719	942.06628	-806.89575	330.74368	965.34595	-505.40930	64.54752	488.07669	-625.27808	358.89975	469.93155	-763.47424	206.87143	78.98560	-630.33264	548.91357	268.60312	-479.86435	
476	4.750	-51.26798	1480.20813	-725.02911	114.25951	1737.55261	-647.44507				49.40502	1566.67981	-798.24774	78.61977	1452.38196	-454.92596	302.86984	1459.21558	-804.69653	131.61769	1304.82959	-705.63483				153.89331	1181.67810	-346.53116	437.12933	1210.42761	-851.90845	18.85028	1014.70490	-418.70749	275.07639	1043.27124	-913.25079	58.46599	915.11554	-609.94000	263.56488	943.97589	-815.03357	325.56512	965.45209	-511.84216	59.36333	488.10916	-625.56531	342.19547	470.73770	-780.24036	206.89732	79.20865	-630.22473	538.30792	271.88165	-498.73245	
477	4.760	-56.83999	1482.08630	-726.56427	110.09224	1738.77246	-650.54944				43.59921	1568.42297	-801.04828	76.03513	1454.54102	-458.69092	295.88889	1459.83655	-811.23010	125.56383	1306.28406	-709.20074				153.36485	1183.18872	-349.52567	428.48822	1210.83154	-860.37061	17.48343	1014.97241	-420.89459	265.14377	1043.62512	-919.05402	51.70668	915.93286	-611.66571	253.82971	944.43073	-822.29492	323.11984	967.12427	-516.89502	53.38631	487.76971	-623.98505	324.54010	471.61880	-797.80841	206.34982	79.46249	-630.57013	528.09204	274.22043	-517.93317	
478	4.770	-62.40035	1483.90161	-728.04565	105.69862	1740.05725	-654.40149				36.96461	1569.45081	-803.42072	75.58920	1455.67773	-460.28647	288.93613	1461.07080	-817.83441	119.53235	1307.70801	-712.64948				152.64955	1183.74182	-356.38889	419.70209	1211.22485	-869.38983	16.56212	1015.21503	-423.55328	254.82251	1044.10986	-925.02826	45.36726	918.12421	-614.01581	245.87825	946.22150	-830.03632	318.36606	967.08966	-523.58429	47.73250	487.24887	-622.36786	307.24332	472.63846	-815.64795	206.36768	79.63461	-630.10864	517.22296	276.13086	-537.84344	
479	4.780	-68.01711	1485.56226	-729.45551	101.40255	1741.55029	-657.66211				30.20382	1571.41541	-806.06329	74.12457	1456.88538	-463.26236	281.94745	1461.97900	-824.58643	113.48203	1309.10376	-716.10046				151.07219	1183.99756	-358.74731	410.91513	1211.33887	-877.43604	15.51377	1014.77094	-426.03552	244.72916	1044.64404	-931.04706	38.75315	919.34045	-616.81909	233.32207	946.57501	-835.42920	313.47644	967.39563	-530.61548	42.37476	486.42102	-620.29645	289.41095	474.44708	-833.24329	205.76787	80.08115	-630.18622	506.26309	275.99658	-556.67773	
